<svg width="18" height="16" viewBox="0 0 18 16" fill="none" xmlns="http://www.w3.org/2000/svg">
<path d="M9.03223 15.2305V15.2305C6.48353 12.6818 6.48353 8.54952 9.03223 6.00082V6.00082V6.00082C11.5809 8.54952 11.5809 12.6818 9.03223 15.2305V15.2305Z" fill="#2E5169"/>
<path d="M6.52637 15.502V15.502C2.92196 15.502 1.94145e-05 12.58 1.95721e-05 8.9756V8.9756V8.9756C3.60442 8.97561 6.52637 11.8975 6.52637 15.502V15.502Z" fill="#2E5169"/>
<path d="M11.4756 15.502V15.502C15.08 15.502 18.0019 12.58 18.0019 8.97561V8.97561V8.97561C14.3975 8.97561 11.4756 11.8975 11.4756 15.502V15.502Z" fill="#2E5169"/>
<path d="M10.0735 3.68778C9.1414 4.28014 7.90555 4.00469 7.31319 3.07256C6.72084 2.14042 6.99628 0.904574 7.92842 0.312218C8.86056 -0.280139 10.0964 -0.00469273 10.6888 0.927444C11.2811 1.85958 11.0057 3.09543 10.0735 3.68778Z" fill="#2E5169"/>
</svg>
